PathFileType	4	(X/Y/Z)	C:/Users/opensim2020/Desktop/walking_exp_matlab/subject01_walking04_straight_02.trc																																																																																																																															
DataRate	CameraRate	NumFrames	NumMarkers	Units	OrigDataRate	OrigDataStartFrame	OrigNumFrames																																																																																																																											
100	100	4	43	mm	100	1450	261																																																																																																																											
Frame#	Time	LFHD			RFHD			LBHD			RBHD			C7			T10			CLAV			STRN			RBAK			LSHO			LUPA			LELB			LFRM			LWRA			LWRB			LFIN			RSHO			RUPA			RELB			RFRM			RWRA			RWRB			RFIN			LASI			RASI			LPSI			RPSI			LTHI			LKNE			LTIB			LANK			LHEE			LTOE			RTHI			RKNE			RTIB			RANK			RHEE			RTOE			*39			*40			*41			*42		
		X1	Y1	Z1	X2	Y2	Z2	X3	Y3	Z3	X4	Y4	Z4	X5	Y5	Z5	X6	Y6	Z6	X7	Y7	Z7	X8	Y8	Z8	X9	Y9	Z9	X10	Y10	Z10	X11	Y11	Z11	X12	Y12	Z12	X13	Y13	Z13	X14	Y14	Z14	X15	Y15	Z15	X16	Y16	Z16	X17	Y17	Z17	X18	Y18	Z18	X19	Y19	Z19	X20	Y20	Z20	X21	Y21	Z21	X22	Y22	Z22	X23	Y23	Z23	X24	Y24	Z24	X25	Y25	Z25	X26	Y26	Z26	X27	Y27	Z27	X28	Y28	Z28	X29	Y29	Z29	X30	Y30	Z30	X31	Y31	Z31	X32	Y32	Z32	X33	Y33	Z33	X34	Y34	Z34	X35	Y35	Z35	X36	Y36	Z36	X37	Y37	Z37	X38	Y38	Z38	X39	Y39	Z39	X40	Y40	Z40	X41	Y41	Z41	X42	Y42	Z42	X43	Y43	Z43
																																																																																																																																		
33	0.32	-1466.94812	1679.65918	-1410.11865	-1441.30298	1686.44604	-1299.19458	-1580.36255	1630.58911	-1388.1936	-1557.69055	1637.02795	-1270.9093	-1614.30371	1443.32751	-1341.00037	-1652.95569	1150.78357	-1328.83716	-1472.57336	1373.57605	-1356.42371	-1431.26758	1218.99255	-1365.08765	-1663.37268	1249.77734	-1258.18787	-1551.4425	1401.07678	-1509.94592	-1605.83643	1223.50671	-1590.45557	-1635.26941	1074.05566	-1595.00427	-1597.78772	965.21338	-1624.76746	-1515.19678	852.28729	-1612.62109	-1571.39819	845.16669	-1633.09851	-1521.59595	777.57196	-1644.87097	-1518.729	1401.6106	-1199.64941	-1566.62817	1204.79236	-1089.80688	-1572.95325	1078.25488	-1085.22009	-1532.04419	962.47003	-1059.71643	-1440.95435	856.0686	-1088.53174	-1480.90356	851.74432	-1045.29248	-1434.99988	779.95746	-1052.23535	-1494.67896	938.09418	-1452.07288	-1472.24072	939.44794	-1236.52026	-1675.35242	960.01227	-1384.16711	-1658.69641	963.7262	-1239.36572	-1495.8866	619.11218	-1539.76611	-1491.54077	486.41684	-1539.72534	-1636.23633	375.52628	-1527.33618	-1791.29688	230.44814	-1457.71497	-1828.51208	235.85495	-1392.78467	-1733.61914	97.81723	-1485.26013	-1526.81519	605.74146	-1198.08386	-1520.31836	449.74011	-1238.18982	-1573.62415	281.13986	-1241.34497	-1602.21143	81.78077	-1306.83374	-1654.5885	46.83684	-1355.70398	-1462.84351	43.07275	-1317.83093	-1456.552	1719.64954	-1320.20776	-1973.04248	1023.41333	3101.93188	-2012.45996	1021.88367	3140.71558	NaN	NaN	NaN
34	0.33	-1457.22791	1679.62891	-1411.0824	-1431.54468	1686.44971	-1300.24207	-1570.71057	1630.80383	-1389.08691	-1547.93884	1637.34033	-1271.76978	-1605.09546	1443.59668	-1342.11316	-1644.45435	1151.1864	-1330.22327	-1463.41089	1373.65186	-1357.16516	-1422.41272	1218.88696	-1365.42151	-1654.81665	1250.19495	-1259.43445	-1541.67358	1401.26379	-1510.95496	-1596.91479	1223.68738	-1591.11768	-1627.49133	1074.46863	-1594.29248	-1592.88025	964.44733	-1623.01782	-1513.53857	849.37634	-1610.0343	-1569.96167	843.96411	-1630.96094	-1522.05383	774.65289	-1641.7926	-1510.21094	1401.91528	-1200.61743	-1557.59644	1204.94702	-1090.6499	-1562.57532	1078.09229	-1085.9397	-1519.30151	962.99719	-1060.7085	-1426.01831	858.71338	-1090.34631	-1465.05334	853.37146	-1047.61279	-1417.84229	782.9281	-1054.00439	-1485.36975	938.97937	-1452.5459	-1464.7677	939.28619	-1236.66333	-1666.59131	960.65613	-1386.28894	-1650.97852	964.03802	-1241.43152	-1481.13513	621.0575	-1541.0874	-1474.45752	488.46088	-1540.58557	-1616.20264	373.59872	-1529.00256	-1767.74243	224.19406	-1460.88464	-1805.69324	227.48932	-1396.03296	-1704.66455	94.94112	-1489.9939	-1522.11304	605.50623	-1199.16223	-1516.93518	449.36575	-1238.98413	-1571.59119	281.1701	-1242.01648	-1601.89221	82.03856	-1307.12817	-1653.89941	47.7288	-1356.04529	-1462.58203	42.95766	-1318.1637	-1446.71143	1719.62024	-1321.21912	-1973.104	1023.56134	3101.98901	-2012.49475	1021.93628	3140.77075	NaN	NaN	NaN
35	0.34	-1447.50098	1679.547	-1412.09766	-1421.77039	1686.54822	-1301.28064	-1561.10095	1631.04541	-1390.06934	-1538.25183	1637.61438	-1272.74878	-1595.87292	1443.85168	-1343.27026	-1635.96667	1151.63513	-1331.57263	-1454.4314	1373.50073	-1357.59888	-1413.55957	1218.81555	-1365.72595	-1646.19897	1250.54932	-1260.67554	-1531.92065	1401.44885	-1511.97412	-1587.97095	1223.74744	-1591.64746	-1619.56311	1074.83984	-1593.71008	-1587.81494	964.02692	-1621.68433	-1511.79858	846.6637	-1607.55579	-1568.25708	842.77448	-1628.72717	-1522.37781	771.91431	-1638.73792	-1501.57666	1401.97144	-1201.33508	-1548.81482	1205.04688	-1091.53674	-1552.38879	1078.0448	-1086.43848	-1506.73352	963.53107	-1061.82751	-1411.12952	861.58575	-1091.74597	-1450.47571	855.27509	-1048.49255	-1400.99902	786.02722	-1055.75818	-1476.21423	939.80341	-1453.16443	-1457.17944	939.18658	-1237.15637	-1657.86108	961.17297	-1388.27979	-1642.94373	964.28595	-1243.75732	-1466.6228	623.0943	-1542.4353	-1457.63416	490.55304	-1541.30823	-1596.74023	372.25549	-1531.6001	-1743.51575	217.18538	-1464.0387	-1781.97449	218.08719	-1399.17432	-1673.37097	90.55901	-1493.59045	-1517.38977	605.31409	-1200.2771	-1513.36609	449.0275	-1239.85339	-1569.41064	281.27554	-1242.70789	-1601.48401	82.34817	-1307.45044	-1654.02673	47.83707	-1356.02869	-1462.29004	43.364	-1318.42932	-1436.93555	1719.5509	-1322.15015	-1973.0968	1023.42981	3101.84863	-2012.5083	1021.89594	3140.60938	NaN	NaN	NaN
36	0.35	-1437.74329	1679.39453	-1413.08557	-1412.06641	1686.38477	-1302.28687	-1551.46301	1631.24988	-1391.06458	-1528.59827	1637.77991	-1273.82068	-1586.63672	1444.10486	-1344.45081	-1627.45056	1152.05176	-1332.90393	-1445.27295	1373.53711	-1358.43481	-1404.71851	1218.72656	-1366.14099	-1637.61902	1250.93213	-1261.89258	-1522.09729	1401.49426	-1512.88098	-1578.87219	1223.5835	-1591.96667	-1611.55176	1075.18274	-1593.13416	-1582.604	963.59552	-1620.26331	-1509.95129	844.21094	-1605.31677	-1566.39575	841.96692	-1626.9718	-1522.58875	769.39392	-1635.8822	-1493.06787	1402.12573	-1202.03589	-1540.58643	1205.27051	-1092.24902	-1542.2843	1077.92969	-1087.07178	-1494.28345	964.16132	-1062.85254	-1396.36011	864.51862	-1093.52051	-1434.91052	857.14734	-1050.61047	-1384.44458	789.30267	-1057.36816	-1467.12354	940.56769	-1453.88245	-1449.54224	938.79956	-1237.69739	-1649.17627	961.57349	-1390.07117	-1635.41724	964.39258	-1245.08752	-1452.17773	625.16156	-1543.80713	-1441.10315	492.67554	-1541.97559	-1576.83447	369.63602	-1533.13049	-1718.61084	209.28499	-1467.10791	-1757.38062	207.81715	-1402.2959	-1644.20215	87.49214	-1499.51135	-1512.72644	604.95837	-1201.25928	-1509.86401	448.64804	-1240.64319	-1567.17139	281.53928	-1243.21948	-1601.03955	82.66493	-1307.77478	-1653.80713	48.46847	-1356.34058	-1462.07861	43.25877	-1318.70007	-1427.05713	1719.552	-1323.33997	-1973.09521	1023.41791	3101.8418	-2012.53979	1021.92126	3140.6853	NaN	NaN	NaN
